<svg xmlns="http://www.w3.org/2000/svg" viewBox="0 0 684.08 324.7"><defs><style>.cls-1{fill:#20140f;}.cls-2{fill:#ff0303;}.cls-3{fill:#fefefe;}</style></defs><g id="Capa_2" data-name="Capa 2"><g id="Capa_1-2" data-name="Capa 1"><path class="cls-1" d="M517.73,0c2.83,1.15,5.87,1.33,8.83,1.85C536.94,3.72,547.32,5.55,557.77,7c1.67.23,3.33.45,5,.61A12.78,12.78,0,0,1,572,13a33.37,33.37,0,0,1,4.76,9.62c.66,1.9.66,1.9,2.59,2,3.75.14,7.51.35,11.27.37a2.51,2.51,0,0,1,2.65,1.76c3.88,8.84,7.84,17.65,11.78,26.47a7.46,7.46,0,0,1,.47,1.09,2.24,2.24,0,0,0,2.77,1.89c4.75-.6,9.06.81,13.37,2.73,8,3.57,16.15,6.89,24.27,10.22a2.67,2.67,0,0,1,2,3c-.09,11.83,0,23.66,0,35.49,0,.56,0,1.12,0,1.68-.09,1,.38,1.4,1.4,1.39,3.2,0,6.39,0,9.59,0a18.1,18.1,0,0,1,7.75,1.23,14,14,0,0,1,5.67,4.24c-.75.57-1.48.33-2.16.33-4.79,0-9.59,0-14.39,0-4.43,0-6.36,2-6.39,6.5,0,2.08.1,4.16,0,6.23-.25,4.17,2.49,6.77,6.56,6.67,7.36-.19,14.72-.06,22.07-.05,1.93,0,2,0,2,1.94,0,1.43.78,3.19-.08,4.2s-2.86.46-4.34.52q-30.91,1.19-61.84,2.29l-19.89.7a3.52,3.52,0,0,0-2.3.46h87.77c2.67,0,2.67,0,2.67,2.66,0,4.88,0,9.75,0,14.63a5.38,5.38,0,0,1-.91,3.13q-2.88,4.41-5.6,8.93a2.67,2.67,0,0,1-2.47,1.47c-5.59.17-11.18.47-16.77.67q-29.37,1.08-58.73,2.13-23.37.87-46.73,1.84a4,4,0,0,1-3.8-1.8c-3.05-4-6.16-8-9.41-11.81a6.1,6.1,0,0,1-1.46-5,49.62,49.62,0,0,0-4-25.27,31.73,31.73,0,0,0-7.44-10.77c-4.18-3.86-9-6-14.83-5.38a18,18,0,0,0-9,3.68,30.18,30.18,0,0,0-9,11.36,49.81,49.81,0,0,0-4.74,20.13c-.1,2.28-.08,2.06-2.14,2.06-5.68,0-11.35,0-17,0-1.71,0-1.71,0-1.75-1.71,0-.48,0-1,0-1.44V15.86c0-2.57,0-2.54,2.51-2.91,7.75-1.15,15.49-2.3,23.22-3.51a21.57,21.57,0,0,1,3.58-.26c8.55.11,17.11.23,25.66.31,2.3,0,4.62.27,6.88-.49.4-.13,1-.18,1.2.42a1,1,0,0,1-1,.38C519.69,8.39,511,8.48,502.46,7.75c-1.83-.16-3.68-.18-5.5-.38-3.86-.43-7.67.21-11.49.49-6.29.46-12.57,1.07-19,1.63-.49-2-.2-4-.21-5.93,0-1,.89-.73,1.46-.77q6.69-.42,13.4-.78Q496.33,1.2,511.54.42c1.28-.06,2.5-.56,3.79-.38Zm84.94,56a2.31,2.31,0,0,0-.08-.55c-3.81-9-7.66-17.9-11.41-26.88-.54-1.28-1.36-1.3-2.44-1.31q-23.15-.24-46.29-.49c-.58,0-1.25-.25-1.73.26a1.92,1.92,0,0,0,0,.55Q547,44.44,553.17,61.27a1.75,1.75,0,0,0,1.94,1.32c5.83,0,11.67.14,17.5.2a8.7,8.7,0,0,0,1.89-.27c7.71-1.73,15.42-3.45,23.12-5.21A24,24,0,0,0,602.67,56Zm-3,41.92-.1.22h.92c6.08.21,12.15.44,18.22.63,6.95.21,13.91.38,20.86.55.89,0,1.51.1,1.53,1.27s-.55,1.33-1.47,1.28c-.48,0-1,0-1.44,0H606.75a42.85,42.85,0,0,0-6.69.4,9.61,9.61,0,0,1-5.42-.32,9.24,9.24,0,0,1,5.38-.36,143.28,143.28,0,0,0,14.34,1c8.31.26,16.63.43,24.94.66,1.69,0,1.77.2,1.77,1.48,0,1.49-1.09,1.1-1.87,1.11-8.88,0-17.76,0-26.63.06a16.83,16.83,0,0,0-4.24.32c.83.09,1.22.15,1.61.16l26.38.68c1.12,0,2.24.11,3.36.1s1.4.33,1.4,1.4-.63,1.27-1.51,1.22c-.56,0-1.12,0-1.68,0-12,.1-24-.27-36,.35-.82,0-1.65-.07-2.47-.11a6,6,0,0,1,3.37-.32,38.31,38.31,0,0,0,7.63.59l24.94.66c1.36,0,2.72.14,4.07.18.94,0,1.71,0,1.64,1.38s-.74,1.2-1.58,1.18h-1.44l-29.26.06c-.77,0-1.54,0-2.31,0a7,7,0,0,0,2.65.37c10.15.31,20.3.64,30.45.93.89,0,1.49.09,1.49,1.27s-.57,1.27-1.48,1.27c-3.36,0-6.72,0-10.08,0h-25.9c8,.49,15.94.73,23.91,1,4.07.13,8.15.3,12.22.38,1.1,0,1.3.48,1.32,1.45s-.64,1.09-1.39,1.08H638c-12.25.05-24.49-.13-37,.16l28.6.9c3.44.1,6.87.24,10.31.29,1,0,1.17.49,1.19,1.33s-.3,1.33-1.23,1.27c-.56,0-1.12,0-1.68,0H609.37a38,38,0,0,0-6.21.37,5.87,5.87,0,0,1-4.09-.32,5.64,5.64,0,0,1,3.86-.36,150.46,150.46,0,0,0,16,1.06c6.8.15,13.59.36,20.39.55.85,0,1.82-.19,1.74,1.26s0,1.41-1.81,1.42q-12.46,0-24.94.05h-5.68V130c2.48,0,5-.05,7.43,0q11.64.27,23.26.63c.72,0,1.67-.28,1.74,1s-.08,1.63-1.82,1.64l-27.35.07h-3.09a2.31,2.31,0,0,0,1.33.38l24.94.65c1.6,0,3.19.12,4.79.18.72,0,1.18.2,1.21,1.08,0,1.08-.21,1.58-1.45,1.57-5.59-.06-11.19,0-16.79,0h-16.3v.27l34.53,1.08v1.94c0,.77.49.9,1.12.88s.79-.42.8-1c0-.32,0-.64,0-1q0-32.73,0-65.46a2.16,2.16,0,0,0-1.69-2.4Q629.15,67,617,62.21a5.76,5.76,0,0,0-3.5-.18c-3,.62-6,1.21-8.9,1.89-4.49,1-9.07,1.76-13.49,3.13a97,97,0,0,1,13.42-.21c4.56.15,9.11.33,13.67.38,4,0,7.47,1.89,11.17,3-9.37.32-18.71.06-28,.51,9.83.34,19.66.65,29.49.84a26.64,26.64,0,0,1,9.12,1.72c.41.16,1,.09.94,1.06H597.66c13.59.68,27.17,1.08,40.76,1.48.64,0,1.28,0,1.92.07.81.08.68.73.71,1.27s0,1.13-.84,1.13h-1.92q-16.54,0-33.1,0a44.24,44.24,0,0,0-8.37.41,2.17,2.17,0,0,1-.72,0c-.25,0-.62,0-.54-.54,1.28-.43,2.5.21,3.75.24,6.16.15,12.29.65,18.46.73,7,.09,13.9.36,20.86.55.48,0,1,0,1.44,0,.88,0,1,.56,1,1.28s-.2,1.23-1.06,1.2c-.56,0-1.12,0-1.68,0q-13.68,0-27.35,0c-.74,0-1.6-.33-2.48.6,1,0,1.68,0,2.38,0l25.18.65c1.36,0,2.72.13,4.08.18.92,0,.93.64.92,1.33s-.12,1.12-.88,1.12l-1.92,0-29.51.06a9.19,9.19,0,0,0-3.33.34c.92.12,1.84.1,2.77.13l30.45.86,1.68.08c.83,0,.73.67.73,1.22s.05,1.18-.77,1.2c-.64,0-1.28,0-1.92,0L606,90.25h-2.34c7.92.5,15.83.72,23.74,1q6.23.18,12.47.4c.45,0,1-.09,1.15.54a1.91,1.91,0,0,1-.11,1.61c-.45.56-1.19.29-1.81.29q-13.68,0-27.35,0h-9.58a1.18,1.18,0,0,0,.87.33l35.73,1.08,1.44,0c1,0,.85.72.88,1.36s-.11,1.1-.88,1.09H599.66ZM532,62.18a4.87,4.87,0,0,0-.63-2.27c-1.49-4.12-3-8.24-4.53-12.35q-3.59-9.77-7.19-19.54c-.3-.81-.47-1.61-1.7-1.6-4.32,0-8.63-.07-12.95,0a2.69,2.69,0,0,0-2.9,2.59,9.73,9.73,0,0,0,0,1.43q0,13.79,0,27.56c0,3.32.74,4.07,4.09,4.12q12,.16,24,.27A3.43,3.43,0,0,0,532,62.18Zm29.68,71.76c4.39,0,8.78,0,13.17,0,2.7,0,3.94-1.23,4-4q.09-3.82,0-7.66c-.06-2.82-1.31-4.14-4.11-4.15q-12.93-.08-25.86,0c-2.94,0-4.23,1.35-4.27,4.26,0,2.39,0,4.79,0,7.18,0,3.1,1.25,4.32,4.36,4.33C553.19,134,557.43,133.94,561.66,133.94Zm9.69-45.09V71.1H517.58c-.39,0-.8-.11-1.15.17-.06,0-.15.09-.18.16-.15.28.32.06-.36.42C535.47,74.34,554.24,78.38,571.35,88.85ZM542.64,62.24l-6.39-17.41c-2-5.53-4.06-11.07-6.13-16.59-.25-.68-.24-1.68-1.37-1.69h-5.32c.35,1,.58,1.63.83,2.29Q529.62,43.3,535,57.74c.58,1.54.65,3.7,2,4.42s3.27.22,4.94.25A4.22,4.22,0,0,0,542.64,62.24Z"/><path class="cls-1" d="M289.93,126.28a6.26,6.26,0,0,1,2.61-.23c17.68.11,35.34.78,53,1.7,13.41.69,26.81,1.65,40.14,3.3,11.58,1.43,23.08,3.38,34.56,5.43.54.1,1.09.17,1.58.25.38-.39.09-.64-.07-.86-13.24-18.61-27.66-36.2-44.87-51.34a106.75,106.75,0,0,0-16.81-12.3c-5.29-3.06-10.81-5.56-16.92-6.4a192.27,192.27,0,0,0-25.83-1.65c-13.39,0-26.3,2.53-39.17,6C225.78,84.53,173.35,98.59,121,112.74L6.28,143.68A42.66,42.66,0,0,1,0,145L461,3V157.82a8.29,8.29,0,0,1-3.29-.7c-20.61-5.74-41.25-11.36-62.07-16.3-14.07-3.34-28.3-5.87-42.61-8q-16.73-2.47-33.54-4.12c-9-.88-18-1.61-27-2.1A5.72,5.72,0,0,1,289.93,126.28Zm160.6-107.7c.86,37.14,1.72,74,2.58,110.93h.21v-115L365.71,40l.08.29Z"/><path class="cls-1" d="M486.54,162.15A67,67,0,0,0,490,181a3.07,3.07,0,0,1-2.2.35c-8.64,0-17.27,0-25.91,0a6.49,6.49,0,0,1-3.58-1c-9.68-5.84-20.09-10.12-30.7-13.92a372.83,372.83,0,0,0-53.86-14.37c-14.11-2.77-28.33-4.89-42.61-6.57-9.13-1.07-18.28-1.89-27.45-2.61-28.56-2.25-57.17-2.64-85.81-2.26q-27.69.36-55.36,2-21.19,1.23-42.31,3.34c-23.29,2.37-46.48,5.51-69.46,10-5.63,1.11-11.22,2.42-16.84,3.62a2.39,2.39,0,0,1-1,0c4.22-1.51,8.59-2.52,12.93-3.61Q76.7,148.3,108,143.07q21.39-3.57,43-6,28.49-3.19,57.13-4.32c21.5-.82,43-.63,64.5.25q24,1,47.84,3.34c26.09,2.54,52,6.15,77.8,11,20.49,3.85,40.84,8.3,60.87,14.11a13.39,13.39,0,0,0,3.78.49q10.56,0,21.11,0A7.21,7.21,0,0,1,486.54,162.15Z"/><path class="cls-2" d="M599.69,219.44l-14.34,24.95L571,219.49c-.63.64-.4,1.28-.4,1.83q0,15.94,0,31.88c0,.64,0,1.28,0,1.92s-.36,1-1,1H556.12c-.7,0-1-.3-1-1,0-.48,0-1,0-1.44V193.23c0-.48,0-1,0-1.44,0-.74.36-.95,1-.95,5,0,9.91,0,14.87,0,1.19,0,1.38.95,1.77,1.67,3.78,6.94,7.52,13.91,11.3,20.85a5.5,5.5,0,0,0,1.55,2.28c.44-.75.88-1.46,1.28-2.2,3.77-7,7.57-13.88,11.26-20.87a2.82,2.82,0,0,1,3-1.75c4.24.1,8.48,0,12.71,0,2.16,0,2.17,0,2.17,2.25q0,29,0,58c0,1.28,0,2.55,0,3.83,0,.81-.33,1.15-1.14,1.15q-6.84,0-13.67,0c-.71,0-1-.31-1-1s0-1.12,0-1.68V219.63Z"/><path class="cls-2" d="M360.91,224.26V193.12c0-2.36-.27-2.28,2.37-2.28h11.28c2.29,0,2.11-.05,2.11,2V254c0,2.05,0,2.06-2.1,2.07-3.28,0-6.56-.07-9.84,0a3.19,3.19,0,0,1-3.09-1.64c-7.12-10.52-14.31-21-21.48-31.47a6.26,6.26,0,0,0-1.87-1.91v32c0,.4,0,.8,0,1.2,0,1.75,0,1.77-1.92,1.78h-8.15c-1.44,0-2.88,0-4.32,0-1.06,0-1.45-.39-1.37-1.41,0-.48,0-1,0-1.44q0-29.83,0-59.69c0-2.95-.41-2.71,2.65-2.72,3.44,0,6.88.08,10.31,0a3.22,3.22,0,0,1,3.09,1.67q10.14,15,20.39,29.89c.48.7,1,1.38,1.49,2.07Z"/><path class="cls-2" d="M678.12,199l-9.18,12.55c-1.18-.93-2.15-1.74-3.16-2.5a17.67,17.67,0,0,0-8.32-3.43,13.22,13.22,0,0,0-12.58,4.86c-5.55,6.53-6,17.87-1,24.88s13.26,7.6,19.48,4.73a2.63,2.63,0,0,0,1.77-3c-.12-1.35,0-2.72,0-4.07,0-1.84,0-1.86-1.79-1.87-2.64,0-5.28-.05-7.91,0-1.13,0-1.57-.31-1.55-1.48,0-3.44,0-6.87,0-10.31,0-1.1.3-1.54,1.5-1.54q11.63.07,23.26,0c1.31,0,1.63.48,1.63,1.67q-.06,13.19,0,26.37a2.58,2.58,0,0,1-.88,2.11c-11.22,10-26,11.71-37.5,6.27-8-3.78-13.1-10.12-15.74-18.4-3.25-10.17-2.77-20.21,2.13-29.78,4.66-9.12,12-14.9,22.27-16.36S670,191,677.6,198.27A6.33,6.33,0,0,1,678.12,199Z"/><path class="cls-2" d="M313.06,213.59c-.08,5.28.18,11.59-.19,17.9a34.91,34.91,0,0,1-2.41,10.94c-2.95,7.34-8.2,12-15.95,13.84A35.12,35.12,0,0,1,277,256a21.07,21.07,0,0,1-14.11-12,36.58,36.58,0,0,1-3.14-15.37c-.11-12,0-24,0-36,0-1.82,0-1.85,1.83-1.85q6.22,0,12.47,0c1.87,0,1.89,0,1.89,2q0,17,0,34a21.51,21.51,0,0,0,1,7.09c1.54,4.55,4.93,6.93,9.8,6.88s8.12-2.58,9.51-7.23a22,22,0,0,0,.82-6.39V193.69c0-.56,0-1.12,0-1.68-.05-.76.18-1.18,1.05-1.17q7,0,13.91,0c.8,0,1.19.29,1.15,1.11,0,.56,0,1.12,0,1.68Z"/><path class="cls-2" d="M126.22,234.36c1.33,1,2.45,1.92,3.61,2.75a26.28,26.28,0,0,0,13.53,5,12.65,12.65,0,0,0,4.75-.43,4.17,4.17,0,0,0,1.12-7.69,22.42,22.42,0,0,0-5.77-2.29c-3.24-.88-6.47-1.75-9.62-2.91a33.07,33.07,0,0,1-3.31-1.39c-7.91-3.89-10.84-9.92-10.36-18.28.67-11.9,9.06-18.58,19.38-19.38,9.1-.71,17.46,1.32,24.67,7.17,2,1.61,1.66,1.41.54,3.23L158,211a8.52,8.52,0,0,1-2.44-1.54c-4.28-2.82-8.85-4.77-14.1-4.66a6.59,6.59,0,0,0-2.8.53,4.08,4.08,0,0,0-.67,7.17,21.79,21.79,0,0,0,6,2.4,96.6,96.6,0,0,1,9.4,2.81c.59.24,1.2.44,1.79.69,9.05,3.82,12.78,9.78,12.2,19.49-.52,8.85-5.92,16-14.52,18.15-12.82,3.16-24.36.28-34.3-8.54-.68-.6-1.25-1.1-.45-2.14C120.82,241.78,123.43,238.15,126.22,234.36Z"/><path class="cls-2" d="M488.34,211.1a38.76,38.76,0,0,0-7.59-4.52,21.19,21.19,0,0,0-9.08-1.81,7.06,7.06,0,0,0-2.57.52,3.93,3.93,0,0,0-2.54,3.48,3.82,3.82,0,0,0,1.82,3.67,12.66,12.66,0,0,0,3.46,1.6c2.6.78,5.21,1.52,7.82,2.27a44.23,44.23,0,0,1,8.67,3.4c5.9,3.17,9.19,8,9.43,14.77a24.16,24.16,0,0,1-1.31,9.66,19,19,0,0,1-15,12.36c-11.9,2.18-22.66-.52-31.93-8.53-.3-.26-.57-.56-.87-.82a1,1,0,0,1-.23-1.62c2.57-3.46,5.11-6.95,7.65-10.43.42-.58.81-.69,1.36-.18s1,.82,1.48,1.21a26.91,26.91,0,0,0,14.41,5.92,13.53,13.53,0,0,0,5.23-.38,4.07,4.07,0,0,0,3.2-3.48A4,4,0,0,0,479.6,234a22.42,22.42,0,0,0-5.77-2.29c-3.23-.88-6.46-1.77-9.62-2.9a28.17,28.17,0,0,1-6-2.93,16.12,16.12,0,0,1-7.5-12,24,24,0,0,1,.58-9.51c2.29-8,7.8-12.78,15.82-14.22a33.21,33.21,0,0,1,26.76,6.14c.51.39,1,.83,1.49,1.21a1.14,1.14,0,0,1,.34,1.79C493.24,203.14,490.87,207,488.34,211.1Z"/><path class="cls-2" d="M6.15,223.46v-30c0-.56,0-1.12,0-1.68,0-.72.32-1,1-1H21.07c.71,0,1,.36.95,1s0,1.12,0,1.68v44.34c0,2.57-.11,2.33,2.33,2.33h23.5c1.91,0,1.93,0,1.94,2,0,3.92,0,7.83,0,11.75,0,2.08,0,2.1-2.08,2.1q-18.58,0-37.17,0c-1.41,0-3.2.65-4.13-.37s-.24-2.6-.25-3.95Q6.13,237.6,6.15,223.46Z"/><path class="cls-2" d="M528.52,223.37V193.64c0-.56,0-1.12,0-1.68,0-.81.33-1.14,1.14-1.13,1.44,0,2.88,0,4.32,0,2.88,0,5.76,0,8.63,0,1.9,0,1.91,0,1.92,2,0,3.52,0,7,0,10.55v49.39c0,.4,0,.8,0,1.2,0,2.07,0,2.08-2.09,2.09h-12c-1.89,0-1.92,0-1.92-2Q528.51,238.72,528.52,223.37Z"/><path class="cls-1" d="M355.53,289v32.75c0,2.12.25,2.1-2,2.11-3.26,0-3.26,0-3.26-3.27V283.45c0-.56,0-1.12,0-1.67-.08-.91.25-1.36,1.2-1.25a1.93,1.93,0,0,0,.48,0c2.45-.42,4.07.57,5.69,2.48,8.65,10.15,17.46,20.17,26.22,30.24.41.47.83.92,1.43,1.59a6,6,0,0,0,.31-2.74q0-14.75,0-29.49c0-2.23-.08-2.11,2.08-2.08,3.85.06,3.22-.51,3.23,3.33,0,12.46,0,24.92,0,37.39,0,.56,0,1.12,0,1.68s-.11.86-.58.88a31.21,31.21,0,0,1-3.35,0c-.92-.05-1.26-.91-1.77-1.49q-13.56-15.52-27.1-31.08l-2-2.34Z"/><path class="cls-1" d="M444.38,285.26a3.81,3.81,0,0,1-.35.62c-.95,1-1.76,2.38-2.91,2.76s-2.08-1.19-3.21-1.76c-6.75-3.37-13.6-4.08-20.46-.51a17.93,17.93,0,0,0-9,19.3,17.37,17.37,0,0,0,15,14.34,24.94,24.94,0,0,0,15.73-2.89,2.83,2.83,0,0,0,1.8-3c-.13-2.39,0-4.79,0-7.19,0-1.76,0-1.78-1.89-1.79H428.33c-1.93,0-1.88.12-1.86-1.77v-.48c0-2.07,0-2.08,2.07-2.08,5.36,0,10.71,0,16.07,0,1.18,0,1.7.25,1.68,1.57-.06,4.79-.05,9.59,0,14.38a2.32,2.32,0,0,1-1.16,2.16,31.15,31.15,0,0,1-20.85,5.61,25.94,25.94,0,0,1-10.92-3.26c-13.89-7.95-14.55-28-1.22-37.17a25.88,25.88,0,0,1,16.61-4.32C434.45,280.09,439.75,281.54,444.38,285.26Z"/><path class="cls-1" d="M320.35,281l-20,18.47,21.42,24.4c-2.4,0-4.35,0-6.29,0-.93,0-1.29-.88-1.79-1.45q-7.71-8.72-15.38-17.46c-.37-.42-.76-.82-1.11-1.26s-.84-.58-1.38-.08c-2.94,2.71-5.88,5.41-8.86,8.08a2.27,2.27,0,0,0-.58,2c0,2.88-.07,5.76,0,8.63.05,1.3-.42,1.65-1.64,1.61-4.86-.14-3.87.66-3.89-3.88-.06-12.23,0-24.46,0-36.69,0-.64,0-1.28,0-1.92s.33-.85.89-.86h2.64c2,0,2-.06,2,1.93,0,5.92,0,11.83,0,17.75v5.61c.92,0,1.28-.7,1.75-1.14q12.07-11.31,24.11-22.68a4.61,4.61,0,0,1,3.8-1.5c1.4.12,2.82,0,4.23,0Z"/><path class="cls-1" d="M211.73,294.93c0-4.16,0-8.31,0-12.47,0-1.89,0-1.89,1.75-1.93,3.77-.1,3.77-.1,3.77,3.75,0,6.87,0,13.75,0,20.62a26.05,26.05,0,0,1-.55,5.72c-1.56,6.95-5.79,11.41-12.73,13.18a25.93,25.93,0,0,1-15.35-.55c-6.48-2.29-10.1-7-11.15-13.74a31.14,31.14,0,0,1-.34-5c0-7.27,0-14.54,0-21.81,0-2-.31-2.15,2-2.16,3.51,0,3.51,0,3.51,3.55v20.86a21.14,21.14,0,0,0,.61,5.93,12,12,0,0,0,8.27,8.59,18.71,18.71,0,0,0,10.64.23c5.6-1.48,8.93-5.53,9.42-11.33,0-.47.08-1,.08-1.43v-12Z"/><path class="cls-1" d="M271,286.39a4.34,4.34,0,0,1-.39.54c-1,.94-1.83,2.32-3,2.67s-2.24-1.2-3.34-1.91C257.83,283.53,251,282.82,244,286a17.59,17.59,0,0,0-10.11,18.44,18,18,0,0,0,15,15.6,21,21,0,0,0,15.92-3.61c1-.69,1.92-1.42,3.09-2.29l3.3,2.9c-.24.9-.92,1.23-1.44,1.66a27.76,27.76,0,0,1-30.39,2.71,21.86,21.86,0,0,1-.47-38,26.38,26.38,0,0,1,15.39-3.61,26.06,26.06,0,0,1,15.71,5.7C270.32,285.73,270.6,286,271,286.39Z"/><path class="cls-1" d="M604.89,286.5a1.71,1.71,0,0,1-.25.4c-1,.94-1.82,2.32-3,2.69s-2.25-1.17-3.35-1.88a20.49,20.49,0,0,0-19-2.33,17.55,17.55,0,0,0-11.51,18.5A17.89,17.89,0,0,0,583.08,320a21.15,21.15,0,0,0,16.66-4.32c.64-.48,1.28-.95,1.93-1.41.05-.05.15,0,.34-.09l3.14,2.76c-.1.86-.74,1.14-1.2,1.52-8.33,7-21.18,8.26-30.56,2.87-7.3-4.19-11.24-10.59-11.25-19s3.85-14.68,10.93-19a25.34,25.34,0,0,1,14.45-3.55c5.71.19,11.06,1.58,15.67,5.13C603.81,285.36,604.57,285.72,604.89,286.5Z"/><path class="cls-1" d="M524.49,132.36c-.62.24-1.06-.22-1.56-.41a14.09,14.09,0,0,0-13.49,1.41,23.94,23.94,0,0,0-7.42,8,43.69,43.69,0,0,0-5.71,16.9,53.11,53.11,0,0,0,2.77,26.4c.72,1.92,1.66,3.75,2.53,5.69-1.11.09-1.49-.8-2-1.37a34.82,34.82,0,0,1-7.43-14.59,52.94,52.94,0,0,1,1.57-32.93,29.26,29.26,0,0,1,7.69-11.71c3.7-3.31,8-5.09,13-4.06a15.09,15.09,0,0,1,10,6.7Z"/><path class="cls-1" d="M117.94,280.61a1,1,0,0,1,.15.29c.46,4,.46,4-3.41,4H104.14c-2.25,0-2-.13-2,2.11q0,17,0,34c0,.56,0,1.12,0,1.68.1,1-.42,1.16-1.28,1.21-4.3.25-4.3.27-4.3-4q0-16.29,0-32.59c0-2.8.34-2.45-2.36-2.47H82.43c-2,0-1.93,0-1.92-2,0-.4,0-.8,0-1.2-.07-.78.19-1.23,1-1.14.32,0,.64,0,1,0h33.81C116.88,280.53,117.43,280.59,117.94,280.61Z"/><path class="cls-1" d="M668.4,132.25c-4.07,0-8.15,0-12.22,0-2.36,0-2.85-.49-2.89-2.77s0-4.63,0-7c.05-2.07.52-2.56,2.57-2.56q12.82,0,25.64,0c2,0,2.49.54,2.54,2.62,0,2.31,0,4.63,0,6.94s-.55,2.7-2.71,2.72C677,132.28,672.71,132.25,668.4,132.25Z"/><path class="cls-1" d="M484.53,300.18c0,5.67,0,11.35,0,17,0,2.62-.3,2.33,2.25,2.33h23.73c.71,0,1,.31,1,1,0,.24,0,.48,0,.72,0,3,.33,2.59-2.49,2.6H480c-.68,0-1-.28-1-1,0-.48,0-1,0-1.44V283.09c0-.56,0-1.12,0-1.68s.32-.85.88-.87h.47c4.16-.26,4.16-.26,4.16,3.84Z"/><path class="cls-1" d="M521.71,302.25q0-9.94,0-19.89c0-1.79,0-1.79,1.86-1.83,3.66-.08,3.66-.08,3.66,3.61v32.35a11.52,11.52,0,0,1,0,1.44c-.15,1.2.25,1.68,1.56,1.64,2.87-.1,5.75,0,8.63,0,5,0,10.07,0,15.1,0,1.66,0,1.66,0,1.7,1.74,0,.48,0,1,0,1.44.06.79-.21,1.22-1.07,1.15-.32,0-.64,0-1,0H522.71c-.7,0-1-.31-1-1,0-1.19,0-2.39,0-3.59Z"/><path class="cls-1" d="M336,323.87c-1.37,0-2.8,0-4.22,0-.87,0-1.11-.42-1.05-1.18,0-.48,0-1,0-1.44V283.21c0-.48,0-1,0-1.43-.08-.94.33-1.21,1.24-1.27,4.27-.29,4.27-.31,4.27,4q0,18.3,0,36.61A6.75,6.75,0,0,1,336,323.87Z"/><path class="cls-1" d="M524.44,132.41a.93.93,0,0,1,.2.08s0,.1,0,.15-.21-.08-.17-.28Z"/><path class="cls-3" d="M602.67,56a24,24,0,0,1-5,1.29c-7.7,1.76-15.41,3.48-23.12,5.21a8.7,8.7,0,0,1-1.89.27c-5.83-.06-11.67-.16-17.5-.2a1.75,1.75,0,0,1-1.94-1.32Q547,44.43,540.73,27.6a1.92,1.92,0,0,1,0-.55c.48-.51,1.15-.27,1.73-.26q23.14.23,46.29.49c1.08,0,1.9,0,2.44,1.31,3.75,9,7.6,17.92,11.41,26.88A2.31,2.31,0,0,1,602.67,56Z"/><path class="cls-3" d="M599.66,97.94h40.52c.77,0,.91-.45.88-1.09s.09-1.34-.88-1.36l-1.44,0L603,94.38a1.18,1.18,0,0,1-.87-.33h9.58q13.68,0,27.35,0c.62,0,1.36.27,1.81-.29a1.91,1.91,0,0,0,.11-1.61c-.12-.63-.7-.52-1.15-.54q-6.24-.21-12.47-.4c-7.91-.23-15.82-.45-23.74-1H606l32.39-.08c.64,0,1.28,0,1.92,0,.82,0,.77-.64.77-1.2s.1-1.17-.73-1.22l-1.68-.08-30.45-.86c-.93,0-1.85,0-2.77-.13a9.19,9.19,0,0,1,3.33-.34l29.51-.06,1.92,0c.76,0,.87-.51.88-1.12s0-1.3-.92-1.33c-1.36,0-2.72-.14-4.08-.18L610.88,83c-.7,0-1.41,0-2.38,0,.88-.93,1.74-.6,2.48-.6q13.66-.06,27.35,0c.56,0,1.12,0,1.68,0,.86,0,1.07-.43,1.06-1.2s-.12-1.27-1-1.28c-.48,0-1,0-1.44,0-7-.19-13.91-.46-20.86-.55-6.17-.08-12.3-.58-18.46-.73-1.25,0-2.47-.67-3.75-.24-.08.53.29.5.54.54a2.17,2.17,0,0,0,.72,0,44.24,44.24,0,0,1,8.37-.41q16.54,0,33.1,0h1.92c.79,0,.88-.51.84-1.13s.1-1.19-.71-1.27c-.64-.06-1.28-.05-1.92-.07-13.59-.4-27.17-.8-40.76-1.48h43.21c.08-1-.53-.9-.94-1.06a26.64,26.64,0,0,0-9.12-1.72c-9.83-.19-19.66-.5-29.49-.84,9.33-.45,18.67-.19,28-.51-3.7-1.14-7.16-3-11.17-3-4.56,0-9.11-.23-13.67-.38a97,97,0,0,0-13.42.21c4.42-1.37,9-2.08,13.49-3.13,2.95-.68,5.93-1.27,8.9-1.89a5.76,5.76,0,0,1,3.5.18Q629.14,67,641.34,71.6A2.16,2.16,0,0,1,643,74q-.07,32.73,0,65.46c0,.32,0,.64,0,1,0,.53-.15.93-.8,1s-1.12-.11-1.12-.88v-1.94l-34.53-1.08v-.27h16.3c5.6,0,11.2,0,16.79,0,1.24,0,1.48-.49,1.45-1.57,0-.88-.49-1.06-1.21-1.08-1.6-.06-3.19-.14-4.79-.18l-24.94-.65a2.31,2.31,0,0,1-1.33-.38h3.09l27.35-.07c1.74,0,1.89-.22,1.82-1.64s-1-1-1.74-1q-11.62-.34-23.26-.63c-2.47-.06-5,0-7.43,0v-.55h5.68q12.46,0,24.94-.05c1.77,0,1.75-.09,1.81-1.42s-.89-1.23-1.74-1.26c-6.8-.19-13.59-.4-20.39-.55a150.46,150.46,0,0,1-16-1.06,5.64,5.64,0,0,0-3.86.36,5.87,5.87,0,0,0,4.09.32,38,38,0,0,1,6.21-.37h28.79c.56,0,1.12,0,1.68,0,.93.06,1.26-.34,1.23-1.27s-.19-1.31-1.19-1.33c-3.44,0-6.87-.19-10.31-.29l-28.6-.9c12.55-.29,24.79-.11,37-.16h1.68c.75,0,1.41,0,1.39-1.08s-.22-1.43-1.32-1.45c-4.07-.08-8.15-.25-12.22-.38-8-.24-15.94-.48-23.91-1h25.9c3.36,0,6.72,0,10.08,0,.91,0,1.48-.11,1.48-1.27s-.6-1.24-1.49-1.27c-10.15-.29-20.3-.62-30.45-.93a7,7,0,0,1-2.65-.37c.77,0,1.54,0,2.31,0l29.26-.06h1.44c.84,0,1.52,0,1.58-1.18s-.7-1.36-1.64-1.38c-1.35,0-2.71-.14-4.07-.18l-24.94-.66a38.31,38.31,0,0,1-7.63-.59,6,6,0,0,0-3.37.32c.82,0,1.65.15,2.47.11,12-.62,24-.25,36-.35.56,0,1.12,0,1.68,0,.88,0,1.51,0,1.51-1.22s-.42-1.41-1.4-1.4-2.24-.07-3.36-.1l-26.38-.68c-.39,0-.78-.07-1.61-.16a16.83,16.83,0,0,1,4.24-.32c8.87,0,17.75,0,26.63-.06.78,0,1.86.38,1.87-1.11,0-1.28-.08-1.44-1.77-1.48-8.31-.23-16.63-.4-24.94-.66a143.28,143.28,0,0,1-14.34-1,9.24,9.24,0,0,0-5.38.36,9.61,9.61,0,0,0,5.42.32,42.85,42.85,0,0,1,6.69-.4h31.43c.48,0,1,0,1.44,0,.92,0,1.48-.13,1.47-1.28s-.64-1.25-1.53-1.27c-6.95-.17-13.91-.34-20.86-.55-6.07-.19-12.14-.42-18.22-.63h-.92Z"/><path class="cls-3" d="M532,62.18a3.43,3.43,0,0,1-1.87.17q-12-.12-24-.27c-3.35,0-4.09-.8-4.09-4.12q0-13.77,0-27.56a9.73,9.73,0,0,1,0-1.43,2.69,2.69,0,0,1,2.9-2.59c4.32,0,8.63.08,12.95,0,1.23,0,1.4.79,1.7,1.6q3.6,9.77,7.19,19.54c1.52,4.11,3,8.23,4.53,12.35A4.87,4.87,0,0,1,532,62.18Z"/><path class="cls-3" d="M561.66,133.94c-4.23,0-8.47,0-12.7,0-3.11,0-4.33-1.23-4.36-4.33,0-2.39,0-4.79,0-7.18,0-2.91,1.33-4.24,4.27-4.26q12.93,0,25.86,0c2.8,0,4,1.33,4.11,4.15q.09,3.84,0,7.66c-.07,2.72-1.31,3.92-4,4C570.44,134,566.05,133.94,561.66,133.94Z"/><path class="cls-3" d="M571.35,88.85c-17.11-10.47-35.88-14.51-55.46-17,.68-.36.21-.14.36-.42,0-.07.12-.11.18-.16.35-.28.76-.17,1.15-.17h53.77Z"/><path class="cls-3" d="M542.64,62.24a4.22,4.22,0,0,1-.71.17c-1.67,0-3.61.44-4.94-.25s-1.42-2.88-2-4.42q-5.38-14.43-10.73-28.9c-.25-.66-.48-1.33-.83-2.29h5.32c1.13,0,1.12,1,1.37,1.69,2.07,5.52,4.09,11.06,6.13,16.59Z"/><path class="cls-3" d="M450.53,18.58,365.79,40.31l-.08-.29,87.61-25.49v115h-.21C452.25,92.61,451.39,55.72,450.53,18.58Z"/><path class="cls-2" d="M251.15,213.7c-2.16-9.07-7.32-15.86-15.9-19.83a33.76,33.76,0,0,0-14.42-3H198.75c-.71,0-1,.35-1,1s0,1.12,0,1.68v30q0,15.22,0,30.45c0,2.07,0,2.08,2.1,2.09,3.6,0,7.2,0,10.8,0,4.79-.05,9.6.29,14.37-.38,11.38-1.62,19.87-7.24,24.42-18A37.85,37.85,0,0,0,251.15,213.7ZM235.3,229a14.08,14.08,0,0,1-13.24,10.89c-2.31.14-4.63,0-6.94.1-1.19,0-1.59-.45-1.45-1.55a1.92,1.92,0,0,0,0-.24v-14.6c0-4.94,0-9.89,0-14.83,0-1.83,0-1.88,1.85-1.86a52.79,52.79,0,0,1,7.64.26c6.29,1,10.65,4.82,12.17,10.94A22.18,22.18,0,0,1,235.3,229Z"/><path class="cls-2" d="M445.74,254.32q-11.55-31.18-23.09-62.39a2.1,2.1,0,0,0-2.45-1.59c-3.84.07-7.67,0-11.51,0-2.36,0-1.91-.3-2.79,2q-11.37,30.63-22.72,61.25a4,4,0,0,0-.55,2.41c5.1,0,10.2,0,15.3,0,1.1,0,1.3-.69,1.56-1.44,1-2.94,2.1-5.86,3-8.82a1.92,1.92,0,0,1,2.19-1.61c6.23.06,12.47.07,18.7,0a2.07,2.07,0,0,1,2.36,1.73c1,3,2.08,5.86,3.11,8.8.24.7.43,1.34,1.39,1.34,5.26,0,10.52,0,15.7,0C446.31,255.31,445.92,254.82,445.74,254.32Zm-37.92-24.09c2.11-6.06,4.17-11.95,6.4-18.35,2.2,6.4,4.21,12.24,6.3,18.35Z"/><path class="cls-2" d="M115.71,254.63q-3.15-8.53-6.32-17.06-8.4-22.65-16.81-45.32c-.69-1.87-.7-1.88-2.67-1.89h-11c-2.35,0-2.35,0-3.16,2.21q-11.2,30.17-22.41,60.35a9.41,9.41,0,0,0-.91,3,3.46,3.46,0,0,0,.68.16c4.8,0,9.59,0,14.39.05a1.66,1.66,0,0,0,1.87-1.36c1-3,2.09-5.86,3-8.83a2.06,2.06,0,0,1,2.37-1.7c6.15.09,12.31.1,18.46,0a2.21,2.21,0,0,1,2.5,1.88c.92,2.89,2,5.71,3,8.58.32,1,.72,1.45,1.83,1.43,5.11-.05,10.22,0,15.32,0A1.77,1.77,0,0,0,115.71,254.63ZM84.12,230.32c-2.06,0-4.12,0-6.47,0,2.14-6.13,4.19-12,6.43-18.46l6.31,18.36C88.16,230.42,86.14,230.3,84.12,230.32Z"/><path class="cls-1" d="M153.74,306.64s0-.15,0-.22a1.86,1.86,0,0,1,.09-.24,19.6,19.6,0,0,0,6.89-2.56,11.12,11.12,0,0,0,5.32-7.62c1-5.93-1.4-10.76-6.82-13.4a21.54,21.54,0,0,0-9.51-2.07H129.12c-.55,0-.88.28-.87.87s0,1.28,0,1.92v37.14c0,3.44,0,3.44,3.4,3.4,2.1,0,2.12,0,2.12-2,0-4.31,0-8.62,0-12.93,0-1.78,0-1.8,1.87-1.81,3.19,0,6.39.1,9.58,0a4,4,0,0,1,3.62,1.74c3.72,4.6,7.52,9.12,11.31,13.66.54.65.94,1.48,2,1.45,1.74-.06,3.48,0,5.76,0C163,317.83,158.35,312.24,153.74,306.64ZM135,302.77c-1,0-1.2-.38-1.2-1.27,0-5.12,0-10.23,0-15.35,0-1.09.43-1.33,1.41-1.31,2.64.05,5.28,0,8.47,0,2.87.17,6.32-.34,9.72.47a12.65,12.65,0,0,1,3.14,1.13,8.07,8.07,0,0,1,1.17,13.62,12,12,0,0,1-7.11,2.56C145.35,302.78,140.15,302.7,135,302.77Z"/></g></g></svg>